<svg id="visual" viewBox="0 0 900 600" width="900" height="600" xmlns="http://www.w3.org/2000/svg" xmlns:xlink="http://www.w3.org/1999/xlink" version="1.1"><g stroke-width="1" stroke-linejoin="bevel"><path d="M435.4 246.7L451.6 200L416.4 238Z" fill="#6e137f" stroke="#6e137f"></path><path d="M451.6 200L418.4 155.3L416.4 238Z" fill="#931d96" stroke="#931d96"></path><path d="M418.4 155.3L361.2 227.7L416.4 238Z" fill="#a622a1" stroke="#a622a1"></path><path d="M416.4 238L385.4 325.3L435.4 246.7Z" fill="#f936ca" stroke="#f936ca"></path><path d="M418.4 155.3L376.2 148.3L361.2 227.7Z" fill="#5c0e73" stroke="#5c0e73"></path><path d="M376.2 148.3L342.2 192L361.2 227.7Z" fill="#ba27ac" stroke="#ba27ac"></path><path d="M513.6 291.7L530.8 184L451.6 200Z" fill="#6e137f" stroke="#6e137f"></path><path d="M451.6 200L523.6 131.3L418.4 155.3Z" fill="#3b045a" stroke="#3b045a"></path><path d="M507.6 306.3L513.6 291.7L435.4 246.7Z" fill="#3b045a" stroke="#3b045a"></path><path d="M435.4 246.7L513.6 291.7L451.6 200Z" fill="#e431c0" stroke="#e431c0"></path><path d="M385.4 325.3L507.6 306.3L435.4 246.7Z" fill="#931d96" stroke="#931d96"></path><path d="M341.2 331.3L385.4 325.3L361.2 227.7Z" fill="#3b045a" stroke="#3b045a"></path><path d="M361.2 227.7L385.4 325.3L416.4 238Z" fill="#931d96" stroke="#931d96"></path><path d="M530.8 184L523.6 131.3L451.6 200Z" fill="#ba27ac" stroke="#ba27ac"></path><path d="M418.4 155.3L378.2 86.7L376.2 148.3Z" fill="#ba27ac" stroke="#ba27ac"></path><path d="M493.6 400L516.8 316.3L507.6 306.3Z" fill="#cf2cb6" stroke="#cf2cb6"></path><path d="M507.6 306.3L516.8 316.3L513.6 291.7Z" fill="#3b045a" stroke="#3b045a"></path><path d="M513.6 291.7L602.1 263.7L530.8 184Z" fill="#931d96" stroke="#931d96"></path><path d="M286.9 331.3L341.2 331.3L270.9 306.7Z" fill="#6e137f" stroke="#6e137f"></path><path d="M385.4 325.3L422.4 387L507.6 306.3Z" fill="#931d96" stroke="#931d96"></path><path d="M444.6 50.7L378.2 86.7L418.4 155.3Z" fill="#5c0e73" stroke="#5c0e73"></path><path d="M376.2 148.3L250.9 140.3L342.2 192Z" fill="#f936ca" stroke="#f936ca"></path><path d="M530.8 184L557.8 128.3L523.6 131.3Z" fill="#e431c0" stroke="#e431c0"></path><path d="M523.6 131.3L444.6 50.7L418.4 155.3Z" fill="#f936ca" stroke="#f936ca"></path><path d="M652.3 198L557.8 128.3L530.8 184Z" fill="#f936ca" stroke="#f936ca"></path><path d="M317.2 370L422.4 387L385.4 325.3Z" fill="#931d96" stroke="#931d96"></path><path d="M250.9 140.3L266.9 224L342.2 192Z" fill="#4b0866" stroke="#4b0866"></path><path d="M342.2 192L266.9 224L361.2 227.7Z" fill="#cf2cb6" stroke="#cf2cb6"></path><path d="M556.8 35.7L444.6 50.7L523.6 131.3Z" fill="#ba27ac" stroke="#ba27ac"></path><path d="M587.8 300.7L513.6 291.7L516.8 316.3Z" fill="#f936ca" stroke="#f936ca"></path><path d="M587.8 300.7L602.1 263.7L513.6 291.7Z" fill="#ba27ac" stroke="#ba27ac"></path><path d="M611.1 322.3L587.8 300.7L561.8 385Z" fill="#4b0866" stroke="#4b0866"></path><path d="M444.6 50.7L424.4 36.7L378.2 86.7Z" fill="#f936ca" stroke="#f936ca"></path><path d="M442.4 0L424.4 36.7L444.6 50.7Z" fill="#e431c0" stroke="#e431c0"></path><path d="M270.9 306.7L341.2 331.3L361.2 227.7Z" fill="#ba27ac" stroke="#ba27ac"></path><path d="M341.2 331.3L317.2 370L385.4 325.3Z" fill="#80188a" stroke="#80188a"></path><path d="M266.9 224L270.9 306.7L361.2 227.7Z" fill="#6e137f" stroke="#6e137f"></path><path d="M422.4 387L493.6 400L507.6 306.3Z" fill="#931d96" stroke="#931d96"></path><path d="M286.9 331.3L317.2 370L341.2 331.3Z" fill="#6e137f" stroke="#6e137f"></path><path d="M422.4 387L479.6 426.7L493.6 400Z" fill="#ba27ac" stroke="#ba27ac"></path><path d="M257.9 42.7L250.9 140.3L378.2 86.7Z" fill="#4b0866" stroke="#4b0866"></path><path d="M378.2 86.7L250.9 140.3L376.2 148.3Z" fill="#ba27ac" stroke="#ba27ac"></path><path d="M266.9 224L201.7 277.7L270.9 306.7Z" fill="#931d96" stroke="#931d96"></path><path d="M561.8 385L587.8 300.7L516.8 316.3Z" fill="#a622a1" stroke="#a622a1"></path><path d="M587.8 300.7L611.1 322.3L602.1 263.7Z" fill="#cf2cb6" stroke="#cf2cb6"></path><path d="M493.6 400L561.8 385L516.8 316.3Z" fill="#3b045a" stroke="#3b045a"></path><path d="M455.4 503.7L479.6 426.7L415.4 510.3Z" fill="#e431c0" stroke="#e431c0"></path><path d="M493.6 400L533.8 459.7L561.8 385Z" fill="#5c0e73" stroke="#5c0e73"></path><path d="M657.1 201L652.3 198L602.1 263.7Z" fill="#ba27ac" stroke="#ba27ac"></path><path d="M602.1 263.7L652.3 198L530.8 184Z" fill="#931d96" stroke="#931d96"></path><path d="M556.8 35.7L523.6 131.3L557.8 128.3Z" fill="#931d96" stroke="#931d96"></path><path d="M475.6 0L442.4 0L444.6 50.7Z" fill="#4b0866" stroke="#4b0866"></path><path d="M424.4 36.7L356.2 0L378.2 86.7Z" fill="#80188a" stroke="#80188a"></path><path d="M659.1 48.7L556.8 35.7L557.8 128.3Z" fill="#cf2cb6" stroke="#cf2cb6"></path><path d="M700.3 285.7L657.1 201L602.1 263.7Z" fill="#80188a" stroke="#80188a"></path><path d="M652.3 198L650.1 128.3L557.8 128.3Z" fill="#ba27ac" stroke="#ba27ac"></path><path d="M556.8 35.7L475.6 0L444.6 50.7Z" fill="#a622a1" stroke="#a622a1"></path><path d="M665.3 172.3L650.1 128.3L652.3 198Z" fill="#6e137f" stroke="#6e137f"></path><path d="M169.7 103.7L207.7 167.3L250.9 140.3Z" fill="#e431c0" stroke="#e431c0"></path><path d="M250.9 140.3L207.7 167.3L266.9 224Z" fill="#6e137f" stroke="#6e137f"></path><path d="M657.1 201L665.3 172.3L652.3 198Z" fill="#931d96" stroke="#931d96"></path><path d="M442.4 0L356.2 0L424.4 36.7Z" fill="#3b045a" stroke="#3b045a"></path><path d="M183.7 184L201.7 277.7L266.9 224Z" fill="#4b0866" stroke="#4b0866"></path><path d="M270.9 306.7L198.7 333.3L286.9 331.3Z" fill="#ba27ac" stroke="#ba27ac"></path><path d="M286.9 331.3L243.9 424L317.2 370Z" fill="#f936ca" stroke="#f936ca"></path><path d="M299.9 0L257.9 42.7L378.2 86.7Z" fill="#931d96" stroke="#931d96"></path><path d="M169.7 103.7L183.7 184L207.7 167.3Z" fill="#5c0e73" stroke="#5c0e73"></path><path d="M207.7 167.3L183.7 184L266.9 224Z" fill="#80188a" stroke="#80188a"></path><path d="M302.9 484.7L356.2 464.7L317.2 370Z" fill="#931d96" stroke="#931d96"></path><path d="M317.2 370L356.2 464.7L422.4 387Z" fill="#ba27ac" stroke="#ba27ac"></path><path d="M455.4 503.7L533.8 459.7L479.6 426.7Z" fill="#3b045a" stroke="#3b045a"></path><path d="M479.6 426.7L533.8 459.7L493.6 400Z" fill="#4b0866" stroke="#4b0866"></path><path d="M561.8 385L640.1 395L611.1 322.3Z" fill="#80188a" stroke="#80188a"></path><path d="M356.2 0L299.9 0L378.2 86.7Z" fill="#a622a1" stroke="#a622a1"></path><path d="M659.1 48.7L573.8 0L556.8 35.7Z" fill="#6e137f" stroke="#6e137f"></path><path d="M556.8 35.7L573.8 0L475.6 0Z" fill="#e431c0" stroke="#e431c0"></path><path d="M175.5 300.7L198.7 333.3L201.7 277.7Z" fill="#931d96" stroke="#931d96"></path><path d="M201.7 277.7L198.7 333.3L270.9 306.7Z" fill="#ba27ac" stroke="#ba27ac"></path><path d="M593.1 462.7L640.1 395L561.8 385Z" fill="#cf2cb6" stroke="#cf2cb6"></path><path d="M611.1 322.3L700.3 285.7L602.1 263.7Z" fill="#6e137f" stroke="#6e137f"></path><path d="M657.1 201L723.5 229L665.3 172.3Z" fill="#f936ca" stroke="#f936ca"></path><path d="M136.5 195L175.5 300.7L201.7 277.7Z" fill="#4b0866" stroke="#4b0866"></path><path d="M668.3 365.3L700.3 285.7L611.1 322.3Z" fill="#5c0e73" stroke="#5c0e73"></path><path d="M640.1 395L668.3 365.3L611.1 322.3Z" fill="#cf2cb6" stroke="#cf2cb6"></path><path d="M169.7 385L243.9 424L198.7 333.3Z" fill="#80188a" stroke="#80188a"></path><path d="M198.7 333.3L243.9 424L286.9 331.3Z" fill="#5c0e73" stroke="#5c0e73"></path><path d="M650.1 128.3L659.1 48.7L557.8 128.3Z" fill="#4b0866" stroke="#4b0866"></path><path d="M720.3 54.7L659.1 48.7L650.1 128.3Z" fill="#3b045a" stroke="#3b045a"></path><path d="M752.5 169.3L650.1 128.3L665.3 172.3Z" fill="#5c0e73" stroke="#5c0e73"></path><path d="M415.4 510.3L479.6 426.7L422.4 387Z" fill="#931d96" stroke="#931d96"></path><path d="M415.4 510.3L422.4 387L356.2 464.7Z" fill="#5c0e73" stroke="#5c0e73"></path><path d="M175.5 300.7L173.5 338.3L198.7 333.3Z" fill="#e431c0" stroke="#e431c0"></path><path d="M752.5 169.3L723.5 229L821.8 233Z" fill="#3b045a" stroke="#3b045a"></path><path d="M700.3 285.7L723.5 229L657.1 201Z" fill="#f936ca" stroke="#f936ca"></path><path d="M640.1 395L703.3 431L668.3 365.3Z" fill="#f936ca" stroke="#f936ca"></path><path d="M533.8 459.7L593.1 462.7L561.8 385Z" fill="#3b045a" stroke="#3b045a"></path><path d="M514.8 554.3L593.1 462.7L533.8 459.7Z" fill="#6e137f" stroke="#6e137f"></path><path d="M375.2 530.3L415.4 510.3L356.2 464.7Z" fill="#931d96" stroke="#931d96"></path><path d="M257.9 42.7L169.7 103.7L250.9 140.3Z" fill="#5c0e73" stroke="#5c0e73"></path><path d="M183.7 184L136.5 195L201.7 277.7Z" fill="#4b0866" stroke="#4b0866"></path><path d="M175.5 300.7L91.2 290.7L173.5 338.3Z" fill="#6e137f" stroke="#6e137f"></path><path d="M151.5 94.7L169.7 103.7L184.7 0Z" fill="#931d96" stroke="#931d96"></path><path d="M243.9 424L302.9 484.7L317.2 370Z" fill="#4b0866" stroke="#4b0866"></path><path d="M109.5 135.3L136.5 195L183.7 184Z" fill="#5c0e73" stroke="#5c0e73"></path><path d="M717.3 0L653.1 0L659.1 48.7Z" fill="#5c0e73" stroke="#5c0e73"></path><path d="M659.1 48.7L653.1 0L573.8 0Z" fill="#80188a" stroke="#80188a"></path><path d="M184.7 0L169.7 103.7L257.9 42.7Z" fill="#80188a" stroke="#80188a"></path><path d="M169.7 103.7L109.5 135.3L183.7 184Z" fill="#e431c0" stroke="#e431c0"></path><path d="M194.7 493.3L282.9 492.3L243.9 424Z" fill="#80188a" stroke="#80188a"></path><path d="M243.9 424L282.9 492.3L302.9 484.7Z" fill="#5c0e73" stroke="#5c0e73"></path><path d="M302.9 484.7L375.2 530.3L356.2 464.7Z" fill="#931d96" stroke="#931d96"></path><path d="M173.5 338.3L169.7 385L198.7 333.3Z" fill="#931d96" stroke="#931d96"></path><path d="M58.2 367L169.7 385L173.5 338.3Z" fill="#3b045a" stroke="#3b045a"></path><path d="M298.9 600L375.2 530.3L302.9 484.7Z" fill="#e431c0" stroke="#e431c0"></path><path d="M448.4 600L492.6 552.3L455.4 503.7Z" fill="#a622a1" stroke="#a622a1"></path><path d="M455.4 503.7L492.6 552.3L533.8 459.7Z" fill="#3b045a" stroke="#3b045a"></path><path d="M771.5 287.7L723.5 229L700.3 285.7Z" fill="#6e137f" stroke="#6e137f"></path><path d="M723.5 229L752.5 169.3L665.3 172.3Z" fill="#cf2cb6" stroke="#cf2cb6"></path><path d="M752.5 169.3L720.3 54.7L650.1 128.3Z" fill="#e431c0" stroke="#e431c0"></path><path d="M299.9 0L184.7 0L257.9 42.7Z" fill="#931d96" stroke="#931d96"></path><path d="M448.4 600L455.4 503.7L415.4 510.3Z" fill="#a622a1" stroke="#a622a1"></path><path d="M151.5 94.7L109.5 135.3L169.7 103.7Z" fill="#80188a" stroke="#80188a"></path><path d="M58.2 367L166.5 428L169.7 385Z" fill="#80188a" stroke="#80188a"></path><path d="M48.2 128.3L109.5 135.3L44.2 48.7Z" fill="#80188a" stroke="#80188a"></path><path d="M184.7 0L178.5 0L151.5 94.7Z" fill="#4b0866" stroke="#4b0866"></path><path d="M169.7 385L166.5 428L243.9 424Z" fill="#5c0e73" stroke="#5c0e73"></path><path d="M91.2 290.7L175.5 300.7L136.5 195Z" fill="#f936ca" stroke="#f936ca"></path><path d="M593.1 462.7L703.3 431L640.1 395Z" fill="#931d96" stroke="#931d96"></path><path d="M786.5 322.3L771.5 287.7L700.3 285.7Z" fill="#931d96" stroke="#931d96"></path><path d="M701.3 501.7L703.3 431L593.1 462.7Z" fill="#e431c0" stroke="#e431c0"></path><path d="M786.5 322.3L700.3 285.7L668.3 365.3Z" fill="#f936ca" stroke="#f936ca"></path><path d="M492.6 552.3L514.8 554.3L533.8 459.7Z" fill="#cf2cb6" stroke="#cf2cb6"></path><path d="M70.2 186L91.2 290.7L136.5 195Z" fill="#e431c0" stroke="#e431c0"></path><path d="M749.5 43.7L717.3 0L720.3 54.7Z" fill="#80188a" stroke="#80188a"></path><path d="M720.3 54.7L717.3 0L659.1 48.7Z" fill="#3b045a" stroke="#3b045a"></path><path d="M798.8 92.3L749.5 43.7L720.3 54.7Z" fill="#5c0e73" stroke="#5c0e73"></path><path d="M798.8 92.3L720.3 54.7L752.5 169.3Z" fill="#6e137f" stroke="#6e137f"></path><path d="M163.5 485.7L194.7 493.3L166.5 428Z" fill="#80188a" stroke="#80188a"></path><path d="M166.5 428L194.7 493.3L243.9 424Z" fill="#5c0e73" stroke="#5c0e73"></path><path d="M298.9 600L369.2 600L375.2 530.3Z" fill="#4b0866" stroke="#4b0866"></path><path d="M514.8 554.3L622.1 533.3L593.1 462.7Z" fill="#4b0866" stroke="#4b0866"></path><path d="M800.5 372L786.5 322.3L668.3 365.3Z" fill="#80188a" stroke="#80188a"></path><path d="M821.8 233L798.8 92.3L752.5 169.3Z" fill="#5c0e73" stroke="#5c0e73"></path><path d="M48.2 128.3L70.2 186L109.5 135.3Z" fill="#4b0866" stroke="#4b0866"></path><path d="M109.5 135.3L70.2 186L136.5 195Z" fill="#5c0e73" stroke="#5c0e73"></path><path d="M492.6 552.3L515.6 600L514.8 554.3Z" fill="#5c0e73" stroke="#5c0e73"></path><path d="M514.8 554.3L545.8 600L622.1 533.3Z" fill="#6e137f" stroke="#6e137f"></path><path d="M375.2 530.3L448.4 600L415.4 510.3Z" fill="#e431c0" stroke="#e431c0"></path><path d="M369.2 600L448.4 600L375.2 530.3Z" fill="#a622a1" stroke="#a622a1"></path><path d="M110.5 509.3L163.5 485.7L72.2 466.7Z" fill="#5c0e73" stroke="#5c0e73"></path><path d="M298.9 600L302.9 484.7L282.9 492.3Z" fill="#931d96" stroke="#931d96"></path><path d="M821.8 233L723.5 229L771.5 287.7Z" fill="#5c0e73" stroke="#5c0e73"></path><path d="M749.5 43.7L759.5 0L717.3 0Z" fill="#5c0e73" stroke="#5c0e73"></path><path d="M298.9 600L282.9 492.3L243.7 600Z" fill="#3b045a" stroke="#3b045a"></path><path d="M163.5 485.7L171.7 501.7L194.7 493.3Z" fill="#e431c0" stroke="#e431c0"></path><path d="M813.8 320.3L821.8 233L771.5 287.7Z" fill="#f936ca" stroke="#f936ca"></path><path d="M622.1 533.3L701.3 501.7L593.1 462.7Z" fill="#3b045a" stroke="#3b045a"></path><path d="M810.8 361L813.8 320.3L786.5 322.3Z" fill="#f936ca" stroke="#f936ca"></path><path d="M448.4 600L515.6 600L492.6 552.3Z" fill="#4b0866" stroke="#4b0866"></path><path d="M730.5 600L709.3 498.3L701.3 501.7Z" fill="#5c0e73" stroke="#5c0e73"></path><path d="M734.5 496.3L709.3 498.3L730.5 600Z" fill="#6e137f" stroke="#6e137f"></path><path d="M701.3 501.7L709.3 498.3L703.3 431Z" fill="#e431c0" stroke="#e431c0"></path><path d="M800.5 372L668.3 365.3L703.3 431Z" fill="#e431c0" stroke="#e431c0"></path><path d="M786.5 322.3L813.8 320.3L771.5 287.7Z" fill="#80188a" stroke="#80188a"></path><path d="M802.8 0L759.5 0L749.5 43.7Z" fill="#5c0e73" stroke="#5c0e73"></path><path d="M772.5 440.7L800.5 372L703.3 431Z" fill="#f936ca" stroke="#f936ca"></path><path d="M515.6 600L545.8 600L514.8 554.3Z" fill="#a622a1" stroke="#a622a1"></path><path d="M70.2 186L46.2 292.3L91.2 290.7Z" fill="#6e137f" stroke="#6e137f"></path><path d="M91.2 290.7L58.2 367L173.5 338.3Z" fill="#80188a" stroke="#80188a"></path><path d="M163.5 485.7L110.5 509.3L171.7 501.7Z" fill="#f936ca" stroke="#f936ca"></path><path d="M44.2 48.7L109.5 135.3L151.5 94.7Z" fill="#e431c0" stroke="#e431c0"></path><path d="M70.2 186L0 279.7L46.2 292.3Z" fill="#80188a" stroke="#80188a"></path><path d="M825.8 432.7L810.8 361L800.5 372Z" fill="#ba27ac" stroke="#ba27ac"></path><path d="M800.5 372L810.8 361L786.5 322.3Z" fill="#931d96" stroke="#931d96"></path><path d="M813.8 320.3L863.8 284.7L821.8 233Z" fill="#80188a" stroke="#80188a"></path><path d="M734.5 496.3L772.5 440.7L703.3 431Z" fill="#a622a1" stroke="#a622a1"></path><path d="M243.7 600L282.9 492.3L194.7 493.3Z" fill="#5c0e73" stroke="#5c0e73"></path><path d="M46.2 292.3L58.2 367L91.2 290.7Z" fill="#ba27ac" stroke="#ba27ac"></path><path d="M668.3 600L701.3 501.7L622.1 533.3Z" fill="#f936ca" stroke="#f936ca"></path><path d="M709.3 498.3L734.5 496.3L703.3 431Z" fill="#3b045a" stroke="#3b045a"></path><path d="M545.8 600L596.1 600L622.1 533.3Z" fill="#cf2cb6" stroke="#cf2cb6"></path><path d="M135.5 600L243.7 600L171.7 501.7Z" fill="#e431c0" stroke="#e431c0"></path><path d="M171.7 501.7L243.7 600L194.7 493.3Z" fill="#f936ca" stroke="#f936ca"></path><path d="M178.5 0L44.2 48.7L151.5 94.7Z" fill="#cf2cb6" stroke="#cf2cb6"></path><path d="M48.2 128.3L0 167L70.2 186Z" fill="#f936ca" stroke="#f936ca"></path><path d="M798.8 92.3L802.8 0L749.5 43.7Z" fill="#80188a" stroke="#80188a"></path><path d="M842.8 66.7L802.8 0L798.8 92.3Z" fill="#80188a" stroke="#80188a"></path><path d="M900 321.3L863.8 284.7L813.8 320.3Z" fill="#6e137f" stroke="#6e137f"></path><path d="M900 135.3L842.8 66.7L798.8 92.3Z" fill="#e431c0" stroke="#e431c0"></path><path d="M900 321.3L813.8 320.3L810.8 361Z" fill="#f936ca" stroke="#f936ca"></path><path d="M72.2 466.7L163.5 485.7L166.5 428Z" fill="#e431c0" stroke="#e431c0"></path><path d="M900 135.3L798.8 92.3L821.8 233Z" fill="#80188a" stroke="#80188a"></path><path d="M58.2 367L72.2 466.7L166.5 428Z" fill="#f936ca" stroke="#f936ca"></path><path d="M0 375L72.2 466.7L58.2 367Z" fill="#931d96" stroke="#931d96"></path><path d="M0 92.3L0 167L48.2 128.3Z" fill="#4b0866" stroke="#4b0866"></path><path d="M46.2 292.3L0 353.3L58.2 367Z" fill="#cf2cb6" stroke="#cf2cb6"></path><path d="M0 167L0 279.7L70.2 186Z" fill="#931d96" stroke="#931d96"></path><path d="M852.8 522.3L825.8 432.7L772.5 440.7Z" fill="#5c0e73" stroke="#5c0e73"></path><path d="M772.5 440.7L825.8 432.7L800.5 372Z" fill="#f936ca" stroke="#f936ca"></path><path d="M852.8 522.3L772.5 440.7L734.5 496.3Z" fill="#f936ca" stroke="#f936ca"></path><path d="M596.1 600L668.3 600L622.1 533.3Z" fill="#e431c0" stroke="#e431c0"></path><path d="M44.2 48.7L0 92.3L48.2 128.3Z" fill="#ba27ac" stroke="#ba27ac"></path><path d="M0 279.7L0 353.3L46.2 292.3Z" fill="#6e137f" stroke="#6e137f"></path><path d="M178.5 0L35.2 0L44.2 48.7Z" fill="#931d96" stroke="#931d96"></path><path d="M44.2 48.7L0 69.7L0 92.3Z" fill="#ba27ac" stroke="#ba27ac"></path><path d="M0 0L0 69.7L44.2 48.7Z" fill="#ba27ac" stroke="#ba27ac"></path><path d="M0 353.3L0 375L58.2 367Z" fill="#f936ca" stroke="#f936ca"></path><path d="M900 230.7L900 220L821.8 233Z" fill="#80188a" stroke="#80188a"></path><path d="M900 230.7L821.8 233L863.8 284.7Z" fill="#cf2cb6" stroke="#cf2cb6"></path><path d="M900 321.3L900 230.7L863.8 284.7Z" fill="#f936ca" stroke="#f936ca"></path><path d="M900 220L900 135.3L821.8 233Z" fill="#5c0e73" stroke="#5c0e73"></path><path d="M842.8 66.7L900 0L802.8 0Z" fill="#3b045a" stroke="#3b045a"></path><path d="M900 423L900 321.3L810.8 361Z" fill="#80188a" stroke="#80188a"></path><path d="M668.3 600L730.5 600L701.3 501.7Z" fill="#3b045a" stroke="#3b045a"></path><path d="M825.8 432.7L900 423L810.8 361Z" fill="#cf2cb6" stroke="#cf2cb6"></path><path d="M900 135.3L900 86.7L842.8 66.7Z" fill="#3b045a" stroke="#3b045a"></path><path d="M43.2 511.3L110.5 509.3L72.2 466.7Z" fill="#4b0866" stroke="#4b0866"></path><path d="M99.2 600L135.5 600L110.5 509.3Z" fill="#3b045a" stroke="#3b045a"></path><path d="M110.5 509.3L135.5 600L171.7 501.7Z" fill="#4b0866" stroke="#4b0866"></path><path d="M35.2 0L0 0L44.2 48.7Z" fill="#3b045a" stroke="#3b045a"></path><path d="M0 494.7L43.2 511.3L72.2 466.7Z" fill="#ba27ac" stroke="#ba27ac"></path><path d="M900 473.7L900 423L825.8 432.7Z" fill="#f936ca" stroke="#f936ca"></path><path d="M43.2 511.3L99.2 600L110.5 509.3Z" fill="#931d96" stroke="#931d96"></path><path d="M900 86.7L900 0L842.8 66.7Z" fill="#f936ca" stroke="#f936ca"></path><path d="M802.8 600L852.8 522.3L734.5 496.3Z" fill="#a622a1" stroke="#a622a1"></path><path d="M0 375L0 494.7L72.2 466.7Z" fill="#6e137f" stroke="#6e137f"></path><path d="M43.2 511.3L0 600L99.2 600Z" fill="#5c0e73" stroke="#5c0e73"></path><path d="M730.5 600L802.8 600L734.5 496.3Z" fill="#a622a1" stroke="#a622a1"></path><path d="M900 564.3L900 473.7L852.8 522.3Z" fill="#f936ca" stroke="#f936ca"></path><path d="M852.8 522.3L900 473.7L825.8 432.7Z" fill="#a622a1" stroke="#a622a1"></path><path d="M0 494.7L0 535.3L43.2 511.3Z" fill="#3b045a" stroke="#3b045a"></path><path d="M802.8 600L900 564.3L852.8 522.3Z" fill="#e431c0" stroke="#e431c0"></path><path d="M0 535.3L0 600L43.2 511.3Z" fill="#5c0e73" stroke="#5c0e73"></path><path d="M802.8 600L900 600L900 564.3Z" fill="#80188a" stroke="#80188a"></path></g></svg>